HIERARCHY
ROOT Hips
{
     OFFSET 1.88212 96.90440 -13.34250
     CHANNELS 6 Xposition Yposition Zposition Zrotation Xrotation Yrotation
     JOINT Spine
     {
          OFFSET 0.00000 11.89050 0.00000
          CHANNELS 3 Zrotation Xrotation Yrotation
          JOINT Spine1
          {
               OFFSET -0.00000 25.65740 0.12766
               CHANNELS 3 Zrotation Xrotation Yrotation
               JOINT HEad
               {
                    OFFSET 0.00000 8.73416 0.01134
                    CHANNELS 3 Zrotation Xrotation Yrotation
                    End Site
                    {
                         OFFSET -0.29000 12.77420 2.51395
                    }
               }
               JOINT LeftShoulder1
               {
                    OFFSET 8.99000 -0.36225 -0.22000
                    CHANNELS 3 Zrotation Xrotation Yrotation
                    JOINT LeftArm
                    {
                         OFFSET 10.28270 -0.00338 0.32212
                         CHANNELS 3 Zrotation Xrotation Yrotation
                         JOINT LeftForeArm
                         {
                              OFFSET 32.76690 0.09914 -1.42434
                              CHANNELS 3 Zrotation Xrotation Yrotation
                              JOINT LeftHand
                              {
                                   OFFSET 27.56430 0.08536 1.02216
                                   CHANNELS 3 Zrotation Xrotation Yrotation
                                   End Site
                                   {
                                        OFFSET 16.74430 -0.60000 1.50291
                                   }
                              }
                         }
                    }
               }
               JOINT RightShoulder
               {
                    OFFSET -8.99000 -0.36225 -0.22000
                    CHANNELS 3 Zrotation Xrotation Yrotation
                    JOINT RightArm
                    {
                         OFFSET -10.28270 -0.00338 0.32212
                         CHANNELS 3 Zrotation Xrotation Yrotation
                         JOINT RightForeArm
                         {
                              OFFSET -32.89710 0.09914 -1.42434
                              CHANNELS 3 Zrotation Xrotation Yrotation
                              JOINT RightHand
                              {
                                   OFFSET -27.49210 0.08536 1.02216
                                   CHANNELS 3 Zrotation Xrotation Yrotation
                                   End Site
                                   {
                                        OFFSET -16.63120 -0.60000 1.50291
                                   }
                              }
                         }
                    }
               }
          }
     }
     JOINT LeftUpLeg
     {
          OFFSET 8.94580 -8.66707 0.10165
          CHANNELS 3 Zrotation Xrotation Yrotation
          JOINT LeftLeg
          {
               OFFSET 0.00000 -44.42270 1.37270
               CHANNELS 3 Zrotation Xrotation Yrotation
               JOINT LeftFoot
               {
                    OFFSET -0.25355 -42.09240 -1.46059
                    CHANNELS 3 Zrotation Xrotation Yrotation
                    JOINT LeftToes
                    {
                         OFFSET -0.04000 -4.41509 8.49910
                         CHANNELS 3 Zrotation Xrotation Yrotation
                         End Site
                         {
                              OFFSET 0.08000 -0.04745 9.77979
                         }
                    }
               }
          }
     }
     JOINT RightUpLeg
     {
          OFFSET -8.94580 -8.66707 0.10165
          CHANNELS 3 Zrotation Xrotation Yrotation
          JOINT RightLeg
          {
               OFFSET 0.00000 -44.42270 1.37270
               CHANNELS 3 Zrotation Xrotation Yrotation
               JOINT RightFoot
               {
                    OFFSET 0.25355 -42.09240 -1.46059
                    CHANNELS 3 Zrotation Xrotation Yrotation
                    JOINT RightToes
                    {
                         OFFSET 0.04000 -4.41509 8.49910
                         CHANNELS 3 Zrotation Xrotation Yrotation
                         End Site
                         {
                              OFFSET -0.08000 -0.13745 9.77979
                         }
                    }
               }
          }
     }
}
MOTION
Frames: 8
Frame Time: 0.01667
-21.26121 93.30077 113.82533 -10.25792 9.65288 -120.21986 -0.58619 24.56070 -1.19548 0.00220 -0.00358 -0.00164 -2.85029 8.40836 10.85631 1.25634 8.44886 -1.14963 -81.76569 -46.10106 -75.02979 -20.21245 33.80891 -86.37685 14.04960 4.67482 -16.13220 17.07915 7.15890 -1.05443 85.64435 -5.28697 69.76684 13.72116 33.29088 100.99734 19.90612 16.92570 4.75630 16.50766 -2.32956 -7.47429 -25.49667 0.41601 58.57589 2.57789 0.00157 -0.00162 9.18877 -13.22476 -71.51486 -33.60067 6.94160 24.97714 55.98500 1.39546 -39.67420 90.00854 -0.00472 -0.00217 -123.42819 -33.78527 16.10219 
-21.81054 93.48488 113.60818 -10.18861 9.56611 -119.40018 -0.98841 24.26054 -1.10131 0.00292 -0.00556 -0.00333 -2.27305 8.45671 9.65060 1.83054 5.41283 1.94178 -80.25402 -40.67427 -74.16437 -21.86421 34.39278 -86.08846 11.47384 1.03105 -21.81688 14.62759 4.26837 3.88852 87.80162 -11.22209 68.54431 12.78361 31.91392 100.29462 16.77386 23.69062 2.97189 16.54298 -2.40149 -10.30729 -25.89681 -0.56586 60.44093 2.25952 0.00198 -0.00150 8.64131 -12.76907 -71.65593 -32.27194 6.79352 24.47055 54.34714 3.15622 -39.19046 90.00452 -0.00404 -0.00346 -119.40512 -25.67329 17.06206 
-22.30927 93.55891 113.36832 -10.14881 9.48922 -118.58688 -1.36089 23.79338 -0.94074 0.00296 -0.00535 -0.00221 -1.41957 8.49874 7.94375 2.49939 3.13638 4.35277 -79.76015 -35.33060 -75.31058 -24.29253 35.02494 -85.48932 10.81995 0.54431 -22.77681 13.31721 2.08719 6.98756 88.95600 -16.30784 69.05769 11.44949 30.11094 99.02882 15.01923 25.03470 2.93408 16.55186 -2.46701 -13.03519 -26.18649 -1.50163 62.24343 1.91194 0.00200 -0.00131 7.95815 -12.10731 -71.84362 -30.55636 6.70158 23.56083 52.03644 6.05926 -38.56190 90.00169 -0.00273 -0.00395 -114.98527 -15.64076 17.94901 
-22.78203 93.59174 113.12068 -10.22222 9.57357 -117.68867 -1.46608 22.89518 -0.63342 0.00793 -0.00657 -0.00076 0.36414 8.50328 4.58694 2.90029 2.98291 4.79948 -80.83437 -30.19789 -81.13628 -29.27388 35.79187 -83.58669 14.48046 6.92128 -13.77611 14.77448 2.38714 6.39435 88.70254 -20.03772 74.64747 8.99383 27.28816 94.86347 16.76814 14.69702 7.09784 15.95707 -2.19403 -14.51267 -25.66220 -1.97355 62.86671 1.56489 0.00241 -0.00196 7.22925 -11.15203 -72.02844 -28.31607 6.11307 21.42160 50.11102 11.93290 -37.80866 90.00120 -0.00177 0.00621 -111.54631 -2.54299 18.25587 
-23.25040 93.64012 112.87531 -10.43582 9.83649 -116.67776 -1.32413 21.69402 -0.22450 0.00671 0.00086 -0.00204 2.95904 8.39217 -0.25770 3.22434 3.37407 4.75918 -81.15075 -26.62757 -84.28082 -32.70564 35.87777 -82.24333 15.02282 7.88066 -12.41099 16.37773 3.14585 5.51626 88.25133 -22.77747 77.97099 7.26489 26.34528 92.29435 16.45760 12.98945 7.81504 15.01297 -1.58412 -14.83563 -24.45547 -1.96786 62.37390 1.15402 0.00245 -0.00037 6.72674 -10.15334 -72.20709 -25.74856 4.86484 18.23822 48.64139 19.93376 -36.90233 89.76184 -0.01122 -0.00084 -107.30791 7.27567 17.58084 
-23.71315 93.69770 112.62228 -11.46721 11.55703 -113.97678 0.45991 21.44254 -1.28828 0.00528 0.00821 -0.00432 6.18065 8.09641 -6.47748 3.44869 4.25418 4.24271 -81.18550 -24.09814 -85.80301 -35.01292 35.73617 -81.28304 16.37749 10.33841 -8.93850 18.04928 4.26091 4.27424 87.53071 -24.87847 79.72153 6.28227 26.12035 90.66205 17.14853 8.45510 9.08338 15.27242 -0.16455 -16.85666 -23.27176 -1.89519 61.84611 0.65682 0.00197 0.00105 6.28048 -8.95236 -72.31861 -21.99729 4.61127 13.26679 47.34459 29.49241 -35.40900 89.06515 -0.03389 -0.01485 -103.28332 16.99731 16.29198 
-24.14697 93.74838 112.33607 -13.48084 14.34348 -109.84387 3.43392 21.98887 -3.56942 0.00356 0.01518 -0.00708 8.95704 7.97335 -12.51196 3.51840 5.52238 3.35099 -81.04295 -22.18603 -86.27020 -36.54205 35.52640 -80.64330 16.66082 9.79995 -9.41339 19.75825 5.58677 2.62496 86.54772 -26.56050 80.36292 5.88803 26.08492 89.51811 16.71327 8.64404 8.75058 16.63433 1.98538 -20.24515 -22.19526 -1.76013 61.27863 0.08134 0.00124 0.00216 5.96143 -7.72490 -72.30610 -17.43827 5.09496 6.65486 45.72606 39.97063 -32.68588 87.62946 -0.06682 -0.04716 -98.08580 25.98012 14.06130 
-24.57283 93.86435 111.99646 -15.50953 16.63312 -106.08444 5.83546 21.93665 -5.32580 0.00200 0.02043 -0.01011 11.37335 8.03416 -18.30483 3.48646 7.05849 2.16672 -80.78665 -20.62081 -86.01254 -37.52335 35.24771 -80.20729 17.49643 10.48464 -8.42562 21.53306 6.97187 0.59365 85.30450 -27.98040 80.17986 5.90199 26.02871 88.67888 17.08609 7.08658 9.16072 18.07343 3.84692 -23.09024 -21.26573 -1.57841 60.67471 -0.56245 0.00052 0.00275 5.71373 -6.56734 -72.15627 -13.70093 3.94418 -0.43515 44.13488 50.25756 -29.39525 75.74609 -0.25076 -0.40269 -82.83623 35.65261 11.74340 
